<svg width="422" height="405" viewBox="0 0 422 405" fill="none" xmlns="http://www.w3.org/2000/svg">
<g clip-path="url(#clip0)">
<path d="M68.2452 47.8994H172.909C177.959 47.8994 182.86 49.6293 186.804 52.8048C190.749 55.9804 193.503 60.4125 194.613 65.3726L247.498 301.528C248.075 304.104 248.085 306.776 247.528 309.356C246.97 311.936 245.859 314.362 244.272 316.464C242.685 318.567 240.66 320.294 238.34 321.525C236.02 322.756 233.46 323.461 230.841 323.591L123.246 328.928C117.484 329.214 111.817 327.38 107.3 323.768C102.783 320.155 99.7263 315.012 98.6996 309.298L68.7003 142.333L66.4685 142.975L60.7284 111.329L63.0257 110.751L54.6519 64.1451C54.2932 62.1488 54.3764 60.0975 54.8955 58.1374C55.4146 56.1773 56.3568 54.3565 57.655 52.805C58.9532 51.2535 60.5753 50.0095 62.4059 49.1615C64.2364 48.3136 66.2302 47.8826 68.2452 47.8994Z" fill="white"/>
<path d="M158.946 57.8131H171.153C174.659 57.8131 178.059 58.9985 180.789 61.1724C183.519 63.3463 185.415 66.378 186.163 69.7643L236.88 299.592C237.172 300.915 237.172 302.285 236.879 303.608C236.587 304.931 236.009 306.176 235.185 307.258C234.361 308.341 233.311 309.234 232.106 309.878C230.901 310.522 229.569 310.901 228.202 310.99L121.049 317.933C118.026 318.129 115.036 317.217 112.65 315.373C110.263 313.528 108.647 310.879 108.11 307.931L64.8324 70.3816C64.5523 68.8441 64.6169 67.2646 65.0216 65.7544C65.4264 64.2443 66.1614 62.8404 67.1749 61.6418C68.1883 60.4431 69.4555 59.4791 70.887 58.8175C72.3184 58.156 73.8793 57.8131 75.4594 57.8131H87.0394C88.1602 57.8131 89.2497 58.1784 90.1393 58.8525C91.0288 59.5265 91.6689 60.4717 91.9602 61.5417C92.2175 62.4863 92.7825 63.3208 93.5678 63.9159C94.3532 64.5109 95.315 64.8334 96.3045 64.8334H151.279C153.216 64.8334 155.082 64.1103 156.504 62.8088C157.926 61.5072 158.798 59.7231 158.946 57.8131Z" fill="#F8F8F8"/>
<path opacity="0.1" d="M140.947 255.663C140.947 262.597 143.683 269.246 148.553 274.149C153.423 279.051 160.027 281.806 166.914 281.806C173.801 281.806 180.406 279.051 185.276 274.149C190.146 269.246 192.881 262.597 192.881 255.663C192.881 255.336 192.876 255.011 192.862 254.686C192.608 247.842 189.697 241.372 184.753 236.667C179.81 231.962 173.23 229.397 166.429 229.525C159.627 229.653 153.147 232.463 148.382 237.351C143.617 242.239 140.947 248.814 140.947 255.663H140.947Z" fill="black"/>
<path opacity="0.1" d="M143.415 265.843C143.415 266.17 143.421 266.495 143.434 266.82C145.953 272.191 150.214 276.539 155.515 279.148C160.816 281.756 166.841 282.47 172.598 281.171C178.356 279.871 183.502 276.637 187.191 272.001C190.879 267.364 192.888 261.601 192.889 255.661C192.889 255.334 192.884 255.009 192.87 254.684C190.351 249.313 186.09 244.965 180.789 242.356C175.488 239.748 169.463 239.034 163.706 240.333C157.948 241.632 152.802 244.867 149.114 249.503C145.426 254.14 143.416 259.903 143.415 265.843H143.415Z" fill="black"/>
<g filter="url(#filter0_d)">
<path d="M301.432 118.99C310.272 118.99 317.439 111.775 317.439 102.875C317.439 93.9746 310.272 86.7595 301.432 86.7595C292.591 86.7595 285.424 93.9746 285.424 102.875C285.424 111.775 292.591 118.99 301.432 118.99Z" fill="#2F2E41"/>
<path d="M318.687 304.818L321.732 317.956H314.337L311.292 303.067L318.687 304.818Z" fill="#9F616A"/>
<path d="M283.019 304.82V317.082L275.625 317.958V304.82H283.019Z" fill="#9F616A"/>
<path d="M320.875 165.56C320.875 165.56 320.005 184.391 319.135 185.705C318.266 187.018 310.436 205.849 310.436 205.849L306.521 193.587C306.521 193.587 312.611 183.515 311.741 177.822C310.871 172.129 311.419 165.124 311.419 165.124L320.875 165.56Z" fill="#9F616A"/>
<path d="M296.077 120.02C302.804 120.02 308.257 114.53 308.257 107.758C308.257 100.986 302.804 95.4966 296.077 95.4966C289.351 95.4966 283.898 100.986 283.898 107.758C283.898 114.53 289.351 120.02 296.077 120.02Z" fill="#9F616A"/>
<path d="M306.085 109.069C306.085 109.069 305.65 126.586 308.695 129.214C311.74 131.841 291.296 129.652 291.296 129.652C291.296 129.652 295.646 117.39 292.166 114.762C288.686 112.135 306.085 109.069 306.085 109.069Z" fill="#9F616A"/>
<path d="M289.986 128.778C289.986 128.778 292.595 123.96 296.075 124.398C299.555 124.836 310.865 125.712 311.3 126.588C311.735 127.464 313.04 130.529 313.91 131.405C314.78 132.281 321.304 133.595 321.739 138.85C322.174 144.105 306.08 176.073 306.08 176.073C306.08 176.073 308.255 183.517 307.82 185.269C307.385 187.021 309.995 192.276 309.56 194.465C309.125 196.655 316.084 209.793 312.605 226.871V254.46C312.605 254.46 324.349 302.194 320.869 305.697C317.389 309.2 305.645 307.011 303.47 305.697C301.295 304.383 292.16 238.257 292.16 238.257L287.811 215.924L287.376 264.97C287.376 264.97 288.246 306.135 285.201 307.449C282.156 308.762 270.411 309.2 269.541 306.573C268.863 304.524 265.538 249.999 264.108 226.098C263.612 217.848 264.257 209.569 266.023 201.498C267.834 193.231 270.462 183.518 273.456 179.576C279.111 172.132 282.591 148.484 282.591 148.484L275.196 134.908C275.196 134.908 279.546 130.529 282.156 130.529C284.766 130.529 289.986 128.778 289.986 128.778Z" fill="white"/>
<path d="M319.127 135.785L321.421 137.357C321.421 137.357 323.042 165.563 321.737 167.315C320.432 169.067 311.36 168.212 310.676 166.669C309.993 165.126 319.127 135.785 319.127 135.785Z" fill="black"/>
<path d="M280.338 161.43C281.611 170.323 282.727 178.239 276.216 185.4C269.674 192.648 262.294 199.083 254.235 204.569C253.437 206.698 241.714 222.336 241.118 216.099C240.521 209.861 244.572 204.971 250.327 199.696C256.082 194.421 264.134 182.976 268.678 176.696C273.221 170.416 271.35 166.5 271.193 161.255C271.035 156.009 278.551 161.493 280.338 161.43Z" fill="#9F616A"/>
<path d="M275.637 309.984C275.637 309.984 275.202 314.889 273.897 316.203C272.592 317.517 269.113 319.268 269.548 324.086C269.983 328.903 272.81 329.122 272.81 329.122L272.592 328.027L273.897 328.465L274.115 329.122H286.294C286.294 329.122 286.512 324.523 286.077 322.334C285.642 320.144 285.642 309.634 284.337 310.072C283.032 310.51 279.552 310.948 278.682 312.7C277.812 314.451 275.202 313.837 275.637 309.984Z" fill="black"/>
<path d="M320.002 309.984C320.002 309.984 320.437 314.889 321.742 316.203C323.047 317.517 326.527 319.268 326.092 324.086C325.657 328.903 322.829 329.122 322.829 329.122L323.047 328.027L321.742 328.465L321.524 329.122H309.345C309.345 329.122 309.127 324.523 309.562 322.334C309.997 320.144 309.997 309.634 311.302 310.072C312.607 310.51 316.087 310.948 316.957 312.7C317.827 314.451 320.437 313.837 320.002 309.984Z" fill="black"/>
<path d="M281.287 133.594L275.198 134.908C275.198 134.908 275.198 144.542 273.458 148.483C271.718 152.424 268.673 161.621 269.978 162.059C271.283 162.496 283.462 168.627 284.332 165.124C285.202 161.621 287.377 133.594 281.287 133.594Z" fill="black"/>
<path d="M318.758 97.7718C327.599 97.7718 334.766 90.5567 334.766 81.6564C334.766 72.7561 327.599 65.541 318.758 65.541C309.918 65.541 302.751 72.7561 302.751 81.6564C302.751 90.5567 309.918 97.7718 318.758 97.7718Z" fill="#2F2E41"/>
<path d="M332.576 94.9999C330.504 96.5074 328.104 97.4935 325.576 97.8757C323.048 98.2579 320.466 98.0249 318.045 97.1964C315.625 96.3679 313.437 94.968 311.664 93.1136C309.892 91.2593 308.586 89.0045 307.856 86.538C308.133 88.7484 308.861 90.8772 309.995 92.7899C311.13 94.7027 312.646 96.3579 314.448 97.6509C316.25 98.944 318.299 99.8469 320.465 100.303C322.631 100.758 324.867 100.757 327.033 100.299C329.198 99.8404 331.246 98.9351 333.047 97.6398C334.847 96.3446 336.361 94.6876 337.493 92.7735C338.626 90.8594 339.352 88.7297 339.625 86.519C339.899 84.3082 339.714 82.0644 339.082 79.9292C339.441 82.7979 339.026 85.7108 337.881 88.3625C336.737 91.0142 334.904 93.3068 332.576 94.9999Z" fill="#2F2E41"/>
<path d="M305.705 117.377C312.188 117.377 317.443 112.086 317.443 105.559C317.443 99.0323 312.188 93.7412 305.705 93.7412C299.221 93.7412 293.966 99.0323 293.966 105.559C293.966 112.086 299.221 117.377 305.705 117.377Z" fill="#2F2E41"/>
<path d="M295.829 109.32C301.575 109.32 306.234 105.653 306.234 101.128C306.234 96.604 301.575 92.9363 295.829 92.9363C290.083 92.9363 285.424 96.604 285.424 101.128C285.424 105.653 290.083 109.32 295.829 109.32Z" fill="#2F2E41"/>
<path d="M293.049 113.045C294.14 113.045 295.024 111.47 295.024 109.528C295.024 107.585 294.14 106.01 293.049 106.01C291.959 106.01 291.075 107.585 291.075 109.528C291.075 111.47 291.959 113.045 293.049 113.045Z" fill="#A0616A"/>
</g>
<path d="M95.5339 122.573L94.8194 114.285C94.7594 113.589 95.2746 112.974 95.9702 112.913L104.56 112.15" stroke="#12B2EB" stroke-width="0.843077"/>
<path d="M109.028 194.677L109.742 202.965C109.802 203.661 110.415 204.175 111.11 204.113L119.7 203.351" stroke="#12B2EB" stroke-width="0.843077"/>
<path d="M196.175 190.191L196.77 197.093C196.83 197.789 196.314 198.403 195.619 198.465L188.459 199.1" stroke="#12B2EB" stroke-width="0.843077"/>
<path d="M179.943 116.087L179.337 109.061C179.277 108.365 178.664 107.851 177.969 107.913L170.681 108.56" stroke="#12B2EB" stroke-width="0.843077"/>
</g>
<g opacity="0.4">
<path opacity="0.4" d="M393.248 355.74C403.552 355.74 411.904 354.327 411.904 352.585C411.904 350.842 403.552 349.43 393.248 349.43C382.944 349.43 374.591 350.842 374.591 352.585C374.591 354.327 382.944 355.74 393.248 355.74Z" fill="#12B2EB"/>
<path opacity="0.4" d="M400.959 347.425C401.809 346.731 402.431 345.797 402.742 344.744C402.971 343.675 402.513 342.395 401.496 342.006C400.353 341.572 399.135 342.36 398.209 343.149C397.283 343.938 396.226 344.864 395.014 344.692C395.641 344.127 396.109 343.408 396.373 342.606C396.636 341.804 396.686 340.947 396.517 340.12C396.466 339.78 396.321 339.462 396.1 339.2C395.466 338.519 394.317 338.811 393.562 339.342C391.15 341.057 390.476 344.321 390.459 347.27C390.219 346.207 390.424 345.098 390.419 344.007C390.413 342.915 390.11 341.72 389.19 341.114C388.615 340.809 387.971 340.659 387.321 340.68C386.235 340.64 385.034 340.749 384.286 341.537C383.365 342.526 383.605 344.178 384.406 345.264C385.206 346.35 386.423 347.03 387.549 347.779C388.446 348.316 389.211 349.046 389.79 349.917C389.859 350.038 389.914 350.167 389.956 350.3H396.757C398.281 349.536 399.695 348.568 400.959 347.425Z" fill="#12B2EB"/>
</g>
<path d="M95 405C113.225 405 128 402.314 128 399C128 395.686 113.225 393 95 393C76.7746 393 62 395.686 62 399C62 402.314 76.7746 405 95 405Z" fill="#12B2EB"/>
<path d="M108.828 389.718C110.209 388.36 111.505 386.74 111.9 384.817C112.294 382.893 111.516 380.535 109.752 379.826C107.78 379.028 105.673 380.469 104.078 381.928C102.483 383.387 100.646 385.055 98.5552 384.745C99.6351 383.713 100.443 382.402 100.898 380.94C101.353 379.478 101.441 377.917 101.153 376.408C101.063 375.787 100.813 375.204 100.432 374.723C99.3385 373.484 97.3548 374.014 96.0418 374.991C91.8773 378.087 90.7108 384.072 90.6883 389.462C90.2656 387.514 90.6207 385.49 90.6094 383.507C90.5981 381.524 90.0853 379.302 88.4962 378.23C87.5029 377.669 86.3873 377.394 85.2615 377.432C83.3906 377.361 81.3168 377.557 80.0263 379.005C78.4315 380.791 78.8485 383.822 80.2292 385.805C81.6098 387.788 83.7174 389.027 85.656 390.397C87.1268 391.439 88.6201 392.654 89.5274 394.303C89.6467 394.524 89.7431 394.757 89.8148 395H101.553C104.192 393.592 106.639 391.816 108.828 389.718Z" fill="#12B2EB"/>
<defs>
<filter id="filter0_d" x="221.06" y="49.541" width="138.688" height="303.581" filterUnits="userSpaceOnUse" color-interpolation-filters="sRGB">
<feFlood flood-opacity="0" result="BackgroundImageFix"/>
<feColorMatrix in="SourceAlpha" type="matrix" values="0 0 0 0 0 0 0 0 0 0 0 0 0 0 0 0 0 0 127 0"/>
<feOffset dy="4"/>
<feGaussianBlur stdDeviation="10"/>
<feColorMatrix type="matrix" values="0 0 0 0 0 0 0 0 0 0 0 0 0 0 0 0 0 0 0.1 0"/>
<feBlend mode="normal" in2="BackgroundImageFix" result="effect1_dropShadow"/>
<feBlend mode="normal" in="SourceGraphic" in2="effect1_dropShadow" result="shape"/>
</filter>
<clipPath id="clip0">
<rect width="422" height="330" fill="white"/>
</clipPath>
</defs>
</svg>
