<svg width="39" height="25" viewBox="0 0 39 25" fill="none" xmlns="http://www.w3.org/2000/svg">
<path fill-rule="evenodd" clip-rule="evenodd" d="M3.04332 0.437469C3.12532 0.231819 3.18456 0.0832247 3.21456 0L13.7535 3.23433C13.6503 3.5205 13.5152 3.86918 13.3604 4.26838C12.6249 6.16523 11.4473 9.20269 11.1619 12.0935C11.011 13.6227 11.2074 14.3881 11.3203 14.657C11.3524 14.6656 11.393 14.6752 11.443 14.685C11.496 14.6954 11.5593 14.7059 11.6337 14.7154C11.7921 14.528 12.0014 14.247 12.2604 13.8395C12.4683 13.5123 12.6704 13.1659 12.8961 12.7718C12.9261 12.7195 12.9576 12.6644 12.9902 12.6072C13.1779 12.2786 13.406 11.8794 13.6231 11.5275C13.8543 11.1529 14.2637 10.5112 14.8232 9.9181C15.1802 9.53972 16.7802 7.86222 19.5259 7.86222C22.1447 7.86222 23.7383 9.40933 24.0857 9.74654L24.0912 9.75188C24.6625 10.3064 25.1014 10.913 25.368 11.2966C25.6488 11.7005 25.9341 12.1474 26.1703 12.5175L26.201 12.5657C26.4638 12.9773 26.6988 13.3445 26.9423 13.7014C27.2335 14.1281 27.4739 14.4442 27.6668 14.6721C27.6778 14.6696 27.688 14.6671 27.6977 14.6647C27.8074 14.3834 27.9874 13.6179 27.8327 12.1126C27.5611 9.47024 26.6951 7.10978 25.9817 5.16556C25.6795 4.34177 25.4047 3.5927 25.2141 2.92858L35.9508 0.305749C35.9498 0.302289 35.9501 0.303272 35.9522 0.309647C35.9594 0.331513 35.9873 0.416814 36.0542 0.603806C36.1165 0.77801 36.1895 0.976735 36.2796 1.22227C36.3043 1.28953 36.3303 1.3603 36.3577 1.43504C36.6037 2.10583 36.9231 2.98458 37.249 3.97836C37.8886 5.92832 38.6192 8.51279 38.8897 11.145C39.1452 13.6302 39.0901 17.0091 37.2411 19.935C35.0816 23.352 31.2645 25 26.7602 25C23.8633 25 21.7337 23.6497 20.4503 22.5431C20.1752 22.3058 19.9145 22.059 19.6684 21.8082C19.3968 22.0825 19.1053 22.3524 18.7929 22.6113C17.303 23.8462 15.1212 25 12.2916 25C7.78828 25 3.97604 23.3554 1.80249 19.9594C-0.0659915 17.0402 -0.145627 13.6629 0.101026 11.1641C0.540101 6.71591 2.4294 1.97729 3.04332 0.437469ZM28.0858 15.0981C28.0858 15.0981 28.0819 15.0955 28.0739 15.0893C28.0818 15.0948 28.0858 15.0981 28.0858 15.0981Z" fill="#808080" fill-opacity="0.17"/>
</svg>
