<svg width="344" height="479" viewBox="0 0 344 479" fill="none" xmlns="http://www.w3.org/2000/svg">
<rect width="325" height="460" fill="#CEE7D0"/>
<rect width="325" height="460" fill="#CEE7D0"/>
<rect width="325" height="460" fill="#8BBA8A"/>
<rect x="19" y="19" width="325" height="460" fill="#CEE7D0"/>
<rect x="19" y="19" width="325" height="460" fill="#CEE7D0"/>
<rect x="19" y="19" width="325" height="460" fill="#CEE7D0"/>
<path d="M260.268 188.08C260.153 190.208 259.958 193.318 258.328 196.797C257.965 197.573 257.578 198.266 257.207 198.859C246.088 192.335 232.971 187.487 218.615 184.862C220.57 183.68 222.882 182.383 225.514 181.071C230.048 178.813 235.24 176.23 242.308 174.65C246.36 173.747 252.413 172.863 259.92 173.498C259.87 175.002 259.824 177.336 259.92 180.198C260.077 184.813 260.417 185.299 260.268 188.08Z" fill="#F2C8D6"/>
<path d="M298.765 247.303C298.573 245.834 298.305 244.311 298.378 242.012C298.455 239.494 298.845 239.192 298.765 237.236C298.696 235.576 298.596 233.188 296.939 231.168C295.527 229.439 293.668 228.826 292.903 228.581C290.783 227.912 289.715 228.417 287.087 228.26C285.659 228.176 283.566 227.881 281.03 226.886L274.181 224.625V223.691C271.047 215.909 265.943 206.76 257.414 198.698C257.391 198.679 257.372 198.656 257.349 198.637C256.109 197.47 254.862 196.383 253.618 195.377L251.047 193.651L247.511 191.13C248.135 190.315 248.962 189.102 249.704 187.514C251.334 184.036 251.529 180.925 251.644 178.798C251.762 176.613 251.575 175.844 251.414 173.383C251.372 172.71 251.33 171.906 251.296 170.915C251.2 168.053 251.246 165.719 251.296 164.216C243.788 163.58 237.735 164.464 233.683 165.367C226.616 166.948 221.424 169.53 216.89 171.788C212.677 173.888 209.283 175.955 206.849 177.55C195.221 175.036 176.687 172.897 155.795 178.687C152.845 179.502 141.535 182.758 128.567 190.598C127.787 191.072 123.972 193.414 118.872 197.458C113.775 201.503 107.393 207.246 101.473 214.524C101.473 214.524 96.4534 220.623 94.9841 227.208C94.3221 230.173 94.2188 231.222 94.2188 231.222C94.0658 232.744 93.6143 234.237 93.5454 235.767C93.5301 236.123 93.5109 236.77 93.0747 237.091C92.6462 237.409 92.0646 237.187 91.3644 237.038C88.686 236.464 88.4296 236.689 86.5433 236.054C84.7794 235.457 84.6837 235.151 84.6799 235.017C84.6607 234.608 85.3801 234.367 86.2869 233.774C87.0981 233.238 87.6567 232.622 88.774 231.39C91.7623 228.088 93.2814 223.768 93.2814 223.768C94.1308 221.361 94.8272 219.383 94.3183 216.927C94.0504 215.618 93.5109 214.539 93.0747 213.663C92.3363 212.174 91.6896 210.877 90.381 209.825C88.9615 208.685 87.4922 208.417 86.13 208.168C84.9477 207.95 82.2846 207.499 79.3919 208.704C77.5745 209.461 76.5107 210.518 75.183 211.841C74.1002 212.917 72.0531 215.002 70.6603 218.338C69.149 221.966 69.1681 225.268 69.1834 228.344C69.1872 229.282 69.2293 230.058 69.2676 230.602C68.8008 230.609 68.1656 230.598 67.4195 230.514C65.8048 230.322 64.6454 229.886 64.3355 229.764C63.5358 229.45 62.7438 229.14 61.9135 228.44C61.2132 227.854 61.3319 227.701 60.5896 227.032C60.1036 226.592 59.281 225.846 57.9915 225.49C57.5324 225.364 56.4036 225.065 55.0912 225.494C54.1078 225.815 53.5071 226.385 53.3617 226.531C52.386 227.483 52.1641 228.631 52.0837 229.086C51.8006 230.659 52.2291 232.545 53.4688 233.632C53.7596 233.888 54.016 234.03 54.1193 234.087C60.2949 237.493 65.6326 240.431 72.5544 239.739C72.8719 239.708 73.4115 239.647 74.0849 239.528C78.003 242.624 83.4784 245.738 90.2356 246.228C90.8134 246.267 91.3835 246.289 91.9422 246.293C92.0952 253.028 93.3196 258.384 94.4139 262.027C95.1295 264.399 95.9674 266.634 96.8934 268.731C102.346 281.113 110.745 288.727 113.741 291.378C114.089 291.688 114.38 291.937 114.571 292.102C115.485 297.328 116.4 302.559 117.318 307.786L119.17 315.075L123.345 329.381C124.083 331.501 125.334 334.057 127.377 334.386C127.741 334.443 128.009 334.413 128.116 334.401C129.769 334.237 137.177 334.168 156.538 334.352C157.001 334.248 159.071 333.732 160.41 331.723C160.544 331.52 161.825 329.534 161.359 327.231C161.244 326.676 161.068 326.282 161.014 326.163C160.41 324.793 159.308 321.338 157.203 313.158C176.928 317.975 193.503 317.225 207.075 314.072C207.469 313.98 207.863 313.885 208.258 313.789L213.079 328.995C214.047 331.528 215.512 334.202 217.609 334.394C217.842 334.413 218.011 334.397 218.083 334.39C219.71 334.248 227.133 334.202 246.245 334.39C246.635 334.26 249.317 333.318 250.404 330.816C251.077 329.278 250.913 327.724 250.913 327.724C250.848 327.108 250.695 326.664 250.66 326.554C250.232 325.253 248.323 316.984 244.454 299.506C251.326 295.09 258.007 289.58 263.899 282.681C265.288 281.051 266.635 279.349 267.932 277.562C268.414 276.904 268.877 276.242 269.329 275.576C273.496 275.293 276.993 274.899 279.656 274.547C280.184 274.474 283.241 274.061 287.144 273.123C289.731 272.503 290.695 272.132 291.663 271.577C293.928 270.273 295.195 268.543 295.795 267.701C296.308 266.986 297.506 265.18 298.378 261.763C299.874 255.901 299.147 250.269 298.765 247.303ZM79.2006 228.157C77.7849 227.602 77.6586 224.545 78.9175 221.331C80.1763 218.113 82.3458 215.955 83.7654 216.513C85.1811 217.068 85.3074 220.125 84.0485 223.339C82.7897 226.557 80.6202 228.712 79.2006 228.157Z" fill="#FBD9E9"/>
<path d="M260.303 238.262C264.7 238.262 268.265 234.697 268.265 230.299C268.265 225.902 264.7 222.337 260.303 222.337C255.905 222.337 252.34 225.902 252.34 230.299C252.34 234.697 255.905 238.262 260.303 238.262Z" fill="#624E59"/>
<path d="M263.578 230.299C264.761 230.299 265.721 229.34 265.721 228.157C265.721 226.973 264.761 226.014 263.578 226.014C262.395 226.014 261.435 226.973 261.435 228.157C261.435 229.34 262.395 230.299 263.578 230.299Z" fill="white"/>
<path d="M244.454 299.506C248.323 316.984 250.232 325.253 250.66 326.554C250.695 326.665 250.848 327.109 250.913 327.725C250.913 327.725 251.078 329.278 250.404 330.816C249.317 333.319 246.635 334.26 246.245 334.39C227.133 334.202 219.71 334.248 218.083 334.39C218.011 334.398 217.842 334.413 217.609 334.394C215.512 334.202 214.047 331.528 213.079 328.995L208.258 313.789C207.863 313.885 207.469 313.981 207.075 314.072C193.503 317.225 176.928 317.975 157.203 313.158C159.308 321.338 160.41 324.794 161.014 326.163C161.068 326.282 161.244 326.676 161.359 327.231C161.826 329.534 160.544 331.52 160.41 331.723C159.071 333.732 157.001 334.248 156.538 334.352C137.177 334.168 129.769 334.237 128.116 334.401C128.009 334.413 127.741 334.444 127.377 334.386C125.334 334.057 124.083 331.501 123.345 329.381L119.17 315.075L117.318 307.786C116.4 302.559 115.485 297.329 114.571 292.102C114.292 291.865 114.016 291.624 113.741 291.379C105.977 284.491 97.9839 273.85 93.136 256.938C100.349 264.105 136.958 298.997 193.178 298.354C232.903 297.899 261.141 279.942 271.831 272.308C267.994 278.193 262.434 285.283 254.544 292.025C251.07 294.994 247.653 297.462 244.454 299.506Z" fill="#F2C8D6"/>
<path d="M122 133.147L134.626 200.644L167.483 194.498L154.857 127L122 133.147Z" fill="#58891F"/>
<path d="M133.099 192.478C137.593 191.638 141.812 194.032 142.522 197.827C142.605 198.27 142.636 198.712 142.619 199.149L134.626 200.644L133.099 192.478Z" fill="#A9CA42"/>
<path d="M166.198 187.626L167.483 194.498L159.344 196.02C158.635 192.225 161.703 188.467 166.198 187.626Z" fill="#A9CA42"/>
<path d="M146.719 128.522L154.857 127L156.143 133.871C151.648 134.712 147.428 132.317 146.719 128.522Z" fill="#A9CA42"/>
<path d="M122 133.146L130.138 131.624C130.848 135.419 127.78 139.177 123.285 140.018L122 133.146Z" fill="#A9CA42"/>
<path d="M154.702 161.959C153.668 156.431 148.37 152.784 142.869 153.813C137.368 154.842 133.747 160.158 134.781 165.685C135.815 171.213 141.113 174.86 146.614 173.831C152.115 172.802 155.736 167.487 154.702 161.959Z" fill="#A9CA42"/>
<path d="M129.893 208.736C145.497 201.019 154.762 197.631 174.456 197.33L175.908 203C156.5 204 146 207 131.344 214.406L129.893 208.736Z" fill="#F2C8D6"/>
</svg>
