<svg width="416" height="413" viewBox="0 0 416 413" fill="none" xmlns="http://www.w3.org/2000/svg">
<ellipse cx="143" cy="356" rx="97" ry="12" fill="#C4C4C4" fill-opacity="0.4"/>
<path d="M146.5 293C126.73 293 107.542 289.125 89.4705 281.48C72.0241 274.101 56.3591 263.54 42.9083 250.092C29.4603 236.641 18.8994 220.976 11.5197 203.53C3.87551 185.458 0 166.27 0 146.5C0 126.73 3.87551 107.542 11.5197 89.4705C18.8994 72.0241 29.4603 56.3591 42.9083 42.9083C56.3564 29.4576 72.0241 18.8994 89.4705 11.5197C107.542 3.87551 126.73 0 146.5 0C166.27 0 185.458 3.87551 203.53 11.5197C220.976 18.8994 236.641 29.4603 250.092 42.9083C263.542 56.3564 274.101 72.0241 281.48 89.4705C289.125 107.542 293 126.73 293 146.5C293 166.27 289.125 185.458 281.48 203.53C274.101 220.976 263.54 236.641 250.092 250.092C236.644 263.54 220.976 274.101 203.53 281.48C185.458 289.125 166.27 293 146.5 293Z" fill="white"/>
<path d="M146.5 276.974C218.559 276.974 276.974 218.559 276.974 146.5C276.974 74.4409 218.559 16.0255 146.5 16.0255C74.4408 16.0255 16.0254 74.4409 16.0254 146.5C16.0254 218.559 74.4408 276.974 146.5 276.974Z" fill="#F8F8F8"/>
<path d="M258.011 142.894L258.011 149.839L276.975 149.839L276.975 142.894L258.011 142.894Z" fill="black"/>
<path d="M154.112 258.011H147.167V276.975H154.112V258.011Z" fill="black"/>
<path d="M16.2925 145.031L16.2925 151.975L35.256 151.975L35.256 145.031L16.2925 145.031Z" fill="black"/>
<path d="M150.749 149.726L149.113 151.238L188.819 194.172L190.455 192.66L150.749 149.726Z" fill="#C9C9C9"/>
<path d="M148.21 153.161C150.408 153.161 152.189 151.379 152.189 149.182C152.189 146.984 150.408 145.202 148.21 145.202C146.012 145.202 144.23 146.984 144.23 149.182C144.23 151.379 146.012 153.161 148.21 153.161Z" fill="black"/>
<path d="M150.277 86.0036H146.14V149.021H150.277V86.0036Z" fill="black"/>
<path d="M196.428 147.75H151.869V149.024H196.428V147.75Z" fill="black"/>
<path d="M151.174 16.2926H144.229V35.2561H151.174V16.2926Z" fill="black"/>
<path d="M381.939 175.157L393.527 158.429C393.958 157.803 393.802 156.946 393.177 156.515L393.158 156.502C392.532 156.071 391.676 156.227 391.244 156.853L379.656 173.581C379.225 174.206 379.381 175.063 380.006 175.495L380.025 175.507C380.644 175.932 381.501 175.776 381.939 175.157Z" fill="#12B2EB"/>
<path d="M357.643 200.155L381.379 181.358L386.606 174.668L389.309 170.034C389.54 169.371 390.491 168.6 391.01 167.331C391.01 161.226 394.855 159.806 393.942 158.449C393.592 157.93 394.143 158.063 393.518 158.063C390.266 158.038 388.396 166.274 386.664 165.936C385.701 165.749 386.032 163.172 384.256 162.228C383.062 161.596 380.523 166.583 379.655 168.103C376.565 173.509 377.089 174.901 376.951 175.826L353.782 191.226" fill="#FFDBBA"/>
<path d="M298.528 380.514C297.515 384.172 298.034 386.692 298.528 388.131C299.473 390.864 301.224 392.258 307.259 397.492C310.185 400.031 312.462 402.033 313.606 403.046V408.918H297.947L288.373 394.716L284.883 399.875C281.206 398.681 278.842 398.243 277.335 398.08C277.179 398.061 277.078 398.055 276.96 397.98C275.09 396.798 280.049 385.829 284.72 376.405" fill="black"/>
<path d="M334.899 139.261C335.85 140.243 336.331 141.906 335.875 143.17C335.068 145.402 331.591 145.646 328.552 146.584C326.188 147.316 324.062 148.466 316.832 155.127C304.113 166.846 300.585 172.599 295.595 176.12C289.26 180.591 277.578 183.593 254.096 174.657V161.474C256.347 162.512 259.868 163.975 264.346 165.139C270.674 166.771 282.963 169.948 293.882 164.407C296.921 162.862 299.41 160.53 304.375 155.864C312.511 148.229 312.774 145.39 318.533 141.95C323.987 138.698 332.023 136.297 334.899 139.261Z" fill="black"/>
<path d="M364.958 120.747C365.65 122.368 364.127 123.571 364.773 126.443C365.393 129.185 367.08 129.424 367.239 131.202C367.542 134.649 361.702 139.635 356.201 139.304C355.073 139.234 352.817 138.052 348.295 135.689C344.193 133.543 343.142 132.681 342.578 131.267C341.64 128.904 342.655 126.438 342.896 125.798C344.906 120.4 351.386 119.192 353.668 118.763C357.447 118.053 363.737 117.885 364.958 120.747Z" fill="white"/>
<path d="M368.038 119.016C368.032 118.822 367.931 118.648 367.76 118.561C366.304 117.825 364.29 116.974 361.821 116.379C353.665 114.424 349.277 116.151 348.131 116.861C344.192 119.304 343.053 123.695 340.792 132.383C340.14 134.899 340.102 135.803 340.419 136.726C341.324 139.377 343.673 140.595 354.292 142.302C359.953 143.212 361.2 142.483 361.814 142.041C363.638 140.736 364.138 138.514 366.892 137.135C367.64 136.76 368.349 136.552 368.925 136.439C369.235 136.378 369.406 136.017 369.273 135.716L368.178 133.219C368.146 133.152 368.133 133.079 368.133 132.998C367.855 132.383 367.171 130.662 367.507 128.44C367.861 126.111 369.115 124.665 369.564 124.19C369.052 122.476 368.545 120.743 368.038 119.016Z" fill="#FFDBBA"/>
<path d="M367.318 392.55H405.196L360.345 233.069C359.094 219.855 357.844 206.635 356.593 193.421C353.454 192.965 349.389 191.808 347.169 188.543C343.079 182.54 349.514 175.686 347.819 163.185C346.775 155.493 342.779 146.613 338.683 146.613C335.231 146.613 332.535 152.942 331.447 155.824C331.197 158.901 330.928 164.129 331.447 170.571C332.71 186.205 337.376 193.565 333.461 201.088C331.022 205.766 326.757 207.648 324.562 208.924C304.219 220.712 307.277 269.803 302.305 302.253C299.522 320.389 292.249 346.279 271.406 376.271C285.789 379.73 300.173 383.188 314.55 386.646C317.101 361.156 319.647 335.673 322.198 310.183C326.132 296.769 330.065 283.361 333.999 269.947L348.026 291.897L361.114 314.342L367.318 392.55Z" fill="white"/>
<path d="M371.133 123.371H359.37V136.497C358.751 136.416 357.794 136.272 356.643 136.047C351.353 134.99 339.377 132.601 336.625 124.528C334.906 119.487 337.57 114.559 338.101 113.571C341.14 107.937 346.781 106.142 349.689 105.21C352.009 104.472 355.042 103.503 358.819 104.297C358.819 104.297 364.667 105.56 368.863 111.464C369.638 112.558 370.113 113.69 370.113 113.69C371.083 115.904 371.202 117.93 371.183 119.162" fill="#4B1F11"/>
<path d="M394.271 392.658C395.303 394.234 397.048 396.417 399.818 397.974C403.908 400.269 405.928 398.787 409.987 401.207C410.906 401.751 415.84 404.834 415.996 409.524C416.034 410.688 415.771 411.651 415.534 412.295H392.42L385.022 402.47V412.301H378.087L376.467 392.658" fill="black"/>
<path d="M336.162 143.163L353.222 151.237C354.279 151.737 355.536 151.287 356.036 150.23L357.906 146.278C358.406 145.221 357.956 143.964 356.899 143.463L339.839 135.39C338.782 134.89 337.526 135.34 337.025 136.397L335.155 140.349C334.655 141.406 335.105 142.663 336.162 143.163Z" fill="black"/>
<path d="M301.962 232.346C300.686 230.351 294.92 232.215 294.532 232.346V238.287L290.073 235.317C290.036 234.935 289.729 232.365 288.028 231.602C285.783 230.595 282.294 233.272 281.9 235.873C281.4 239.188 285.921 242.365 289.517 243.303C290.317 243.509 293.901 244.447 297.315 242.377C300.573 240.401 301.361 237.099 301.955 234.579C302.28 233.222 302.199 232.715 301.962 232.346Z" fill="#FFDBBA"/>
<path d="M350.346 149.88C344.762 147.247 343.705 146.79 341.603 145.74C340.065 144.971 337.826 143.82 335.137 142.294C323.837 157.753 312.537 173.212 301.23 188.671L284.739 230.139L302.174 233.91L262.595 362.553H407.723L369.557 221.19H375.686L358.72 188.202C363.948 186.195 365.023 183.693 365.317 182.549C365.511 181.798 365.636 180.591 361.809 169.203C361.734 168.985 361.715 168.935 361.59 168.553C357.5 156.396 357.244 153.97 354.717 151.95C354.686 151.925 353.241 151.243 350.346 149.88Z" fill="#12B2EB"/>
<path d="M369.088 221.822L356.887 221.496L352.935 361.878H407.072L369.088 221.822Z" fill="black"/>
<path d="M352.291 362.503H407.892L407.679 361.715L369.569 221.209L356.28 220.858L356.262 221.484L352.291 362.503ZM406.253 361.253H353.579L357.494 222.134L368.606 222.428L406.253 361.253Z" fill="black"/>
<path d="M353.782 289.911C356.04 298.173 358.291 306.434 360.536 314.695L366.752 392.903H404.63C388.302 340.109 371.974 287.316 355.646 234.523L355.32 234.948L353.782 289.911Z" fill="white"/>
<path d="M326.807 182.299V197.758L316.257 209.94V194.299L326.807 182.299Z" fill="#F2F2F2"/>
<path d="M255.178 302.681L293.857 235.686C294.451 234.654 294.101 233.341 293.069 232.747L292.594 232.471C291.562 231.877 290.249 232.228 289.654 233.259L250.976 300.255C250.382 301.286 250.732 302.6 251.764 303.194L252.239 303.469C253.265 304.063 254.584 303.707 255.178 302.681Z" fill="#898A8D"/>
<path d="M235.216 375.392L275.358 305.858C277.378 302.356 276.184 297.872 272.676 295.852L248.13 281.681C244.628 279.661 240.144 280.856 238.124 284.364L197.982 353.898C195.962 357.4 197.157 361.884 200.665 363.904L225.21 378.075C228.713 380.095 233.196 378.894 235.216 375.392Z" fill="black"/>
<path d="M230.082 383.553C227.82 383.553 225.986 381.719 225.986 379.457C225.986 377.195 227.82 375.361 230.082 375.361C232.344 375.361 234.178 377.195 234.178 379.457C234.178 381.719 232.344 383.553 230.082 383.553Z" fill="#898A8D"/>
</svg>
