<svg width="300" height="214" viewBox="0 0 300 214" fill="none" xmlns="http://www.w3.org/2000/svg">
<g filter="url(#filter0_d)">
<rect x="19.1621" y="15" width="261" height="176" fill="#CBF8C4"/>
</g>
<g clip-path="url(#clip0)">
<path d="M40.2231 144.19C36.8492 145.935 40.0233 158.61 43.2688 169.148C44.9451 168.884 47.4273 168.5 50.4303 168.079C69.4824 165.415 73.805 166.184 75.5668 166.554C78.8623 167.253 81.5228 168.443 86.844 170.815C94.4335 174.206 98.2282 175.902 100.554 177.968C101.616 178.909 103.371 180.626 106.189 181.317C107.194 181.566 109.277 182.044 111.367 181.011C112.437 180.483 114.313 179.165 114.413 177.968C114.42 177.869 114.434 177.626 114.591 177.527C114.998 177.27 115.975 178.161 116.346 178.474C118.45 180.291 121.296 181.31 122.951 181.659C124.049 181.894 125.604 182.2 127.252 181.481C128.579 180.904 129.335 179.935 129.52 179.693C129.813 179.301 130.384 178.524 130.533 177.427C130.747 175.867 129.92 175.033 130.234 174.741C130.754 174.263 132.951 176.501 136.846 178.154C138.515 178.866 139.649 179.329 141.218 179.222C141.654 179.194 144.514 178.994 145.841 176.914C146.204 176.337 146.896 174.926 146.747 173.287C146.689 172.675 146.533 172.19 146.747 172.048C147.089 171.827 147.931 172.81 148.936 173.587C149.536 174.05 151.861 175.852 154.564 175.639C154.771 175.624 157.617 175.354 159.101 173.002C160 171.577 159.95 170.096 159.928 169.362C159.9 168.514 159.864 167.409 159.094 166.341C158.202 165.115 156.918 164.731 156.469 164.617L130.341 150.937C129.877 150.666 129.257 150.317 128.515 149.94C126.254 148.778 124.435 148.13 123.992 147.973C121.389 147.061 120.084 146.605 119.442 146.648C119.32 146.655 118.914 146.691 118.678 146.448C118.386 146.142 118.429 145.472 118.735 145.145C119.199 144.66 120.219 144.945 120.561 145.031C121.91 145.373 124.549 145.173 129.834 144.767C131.618 144.632 134.164 144.425 137.274 143.413C138.394 143.05 140.084 142.423 141.925 141.219C143.494 140.193 144.507 139.509 145.056 138.198C145.249 137.735 145.284 136.623 145.348 134.4C145.413 132.249 145.341 131.771 145.013 131.266C144.343 130.232 143.144 129.933 142.873 129.862C141.682 129.563 140.648 129.905 140.327 130.012C137.788 130.838 135.12 131.201 132.538 131.885C131.496 132.163 130.776 132.213 122.751 131.173C114.748 130.133 113.585 129.841 110.019 129.506C105.204 129.05 102.8 128.822 100.311 129.028C94.248 129.534 89.4262 131.942 80.0178 136.737C75.1745 139.21 74.9177 139.651 72.2215 140.635C69.3041 141.696 65.809 142.166 58.9542 143.064C49.8311 144.254 45.2732 144.852 42.42 144.247C41.4713 144.047 40.8579 143.862 40.2231 144.19Z" fill="#5F3C25"/>
<path d="M22.4121 141.824L45.2019 139.01L46.229 175.981L23.1753 181.353L22.4121 141.824Z" fill="#F3F3F3"/>
<path d="M271.081 161.368H107.037V174.976H271.081V161.368Z" fill="#EBF0F4"/>
<path d="M39.1032 147.082C35.7293 148.828 38.9035 161.503 42.149 172.04C43.8252 171.777 46.3075 171.392 49.3104 170.972C68.3626 168.307 72.6851 169.077 74.447 169.447C77.7424 170.145 80.403 171.335 85.7242 173.708C93.3136 177.099 97.1083 178.795 99.4337 180.861C100.496 181.801 102.251 183.518 105.069 184.21C106.074 184.459 108.157 184.936 110.247 183.903C111.317 183.376 113.193 182.058 113.293 180.861C113.3 180.761 113.314 180.519 113.471 180.419C113.878 180.163 114.855 181.053 115.226 181.367C117.33 183.184 120.176 184.202 121.831 184.552C122.93 184.787 124.485 185.093 126.132 184.373C127.459 183.796 128.215 182.827 128.401 182.585C128.693 182.193 129.264 181.417 129.413 180.319C129.627 178.759 128.8 177.926 129.114 177.633C129.635 177.156 131.832 179.393 135.726 181.046C137.395 181.759 138.529 182.222 140.099 182.115C140.534 182.086 143.394 181.887 144.721 179.806C145.085 179.229 145.776 177.819 145.627 176.18C145.57 175.567 145.413 175.083 145.627 174.94C145.969 174.719 146.811 175.703 147.816 176.479C148.416 176.942 150.741 178.745 153.444 178.531C153.651 178.517 156.497 178.246 157.981 175.895C158.88 174.47 158.83 172.988 158.808 172.254C158.78 171.406 158.744 170.302 157.974 169.233C157.082 168.008 155.798 167.623 155.349 167.509L129.221 153.83C128.757 153.559 128.137 153.21 127.395 152.832C125.134 151.671 123.315 151.022 122.873 150.866C120.269 149.954 118.964 149.498 118.322 149.54C118.2 149.548 117.794 149.583 117.559 149.341C117.266 149.035 117.309 148.365 117.616 148.037C118.079 147.553 119.099 147.838 119.442 147.923C120.79 148.265 123.429 148.066 128.714 147.66C130.498 147.524 133.044 147.318 136.154 146.306C137.274 145.942 138.964 145.316 140.805 144.111C142.374 143.085 143.387 142.401 143.936 141.091C144.129 140.627 144.164 139.516 144.229 137.293C144.293 135.141 144.221 134.664 143.893 134.158C143.223 133.125 142.025 132.826 141.753 132.755C140.562 132.455 139.528 132.797 139.207 132.904C136.668 133.731 134 134.094 131.418 134.778C130.376 135.056 129.656 135.106 121.631 134.066C113.628 133.025 112.466 132.733 108.899 132.398C104.084 131.942 101.681 131.714 99.1912 131.921C93.1282 132.427 88.3063 134.835 78.8979 139.63C74.0546 142.102 73.7979 142.544 71.1016 143.527C68.1842 144.589 64.6891 145.059 57.8343 145.957C48.7113 147.147 44.1533 147.745 41.3001 147.139C40.3443 146.94 39.7309 146.755 39.1032 147.082Z" fill="#B46C3F"/>
<path d="M19.0811 148.479L41.878 145.665L42.898 182.628L19.8514 188L19.0811 148.479Z" fill="white"/>
<path d="M39.5668 172.525H29.0671V181.353H39.5668V172.525Z" fill="#FFCC15"/>
<path d="M187.597 101.32L184.987 101.799L191.341 136.324L193.951 135.845L187.597 101.32Z" fill="#EDCB00"/>
<path d="M185.971 101.621L184.161 101.954L190.515 136.478L192.325 136.146L185.971 101.621Z" fill="#BBA000"/>
<path d="M192.126 107.975L189.517 108.454L195.871 142.978L198.48 142.499L192.126 107.975Z" fill="#EDCB00"/>
<path d="M190.5 108.276L188.69 108.608L195.044 143.133L196.854 142.8L190.5 108.276Z" fill="#BBA000"/>
<path d="M198.656 105.855L196.009 105.674L193.619 140.697L196.267 140.878L198.656 105.855Z" fill="#EDCB00"/>
<path d="M197.003 105.741L195.167 105.616L192.777 140.639L194.613 140.764L197.003 105.741Z" fill="#BBA000"/>
<path d="M203.728 100.148L201.08 99.9677L198.691 134.991L201.338 135.171L203.728 100.148Z" fill="#EDCB00"/>
<path d="M202.074 100.035L200.238 99.9097L197.848 134.933L199.684 135.058L202.074 100.035Z" fill="#BBA000"/>
<path d="M196.983 103.564L194.374 104.043L200.728 138.568L203.337 138.089L196.983 103.564Z" fill="#EDCB00"/>
<path d="M195.35 103.867L193.54 104.199L199.894 138.723L201.704 138.391L195.35 103.867Z" fill="#BBA000"/>
<path d="M201.514 110.226L198.904 110.705L205.258 145.229L207.868 144.75L201.514 110.226Z" fill="#EDCB00"/>
<path d="M199.886 110.52L198.076 110.852L204.43 145.377L206.24 145.044L199.886 110.52Z" fill="#BBA000"/>
<path d="M208.043 108.106L205.396 107.926L203.006 142.949L205.653 143.129L208.043 108.106Z" fill="#EDCB00"/>
<path d="M206.389 107.993L204.553 107.868L202.163 142.891L204 143.016L206.389 107.993Z" fill="#BBA000"/>
<path d="M212.28 103.902L209.633 103.722L207.243 138.745L209.891 138.925L212.28 103.902Z" fill="#EDCB00"/>
<path d="M210.634 103.789L208.798 103.664L206.408 138.687L208.244 138.812L210.634 103.789Z" fill="#BBA000"/>
<path d="M216.354 101.003L213.706 100.822L211.317 135.845L213.964 136.026L216.354 101.003Z" fill="#EDCB00"/>
<path d="M214.7 100.889L212.864 100.764L210.474 135.787L212.31 135.912L214.7 100.889Z" fill="#BBA000"/>
<path d="M209.691 112.196L207.044 112.016L204.654 147.039L207.302 147.219L209.691 112.196Z" fill="#EDCB00"/>
<path d="M208.037 112.083L206.201 111.958L203.812 146.981L205.648 147.106L208.037 112.083Z" fill="#B49A00"/>
<path d="M213.821 104.986L211.174 104.805L208.784 139.828L211.432 140.009L213.821 104.986Z" fill="#EDCB00"/>
<path d="M212.167 104.88L210.331 104.755L207.941 139.777L209.777 139.902L212.167 104.88Z" fill="#BBA000"/>
<path d="M181.453 97.9987L178.926 98.8065L189.638 132.239L192.165 131.431L181.453 97.9987Z" fill="#EDCB00"/>
<path d="M179.876 98.5072L178.124 99.0675L188.836 132.5L190.588 131.94L179.876 98.5072Z" fill="#BBA000"/>
<path d="M209.497 142.656L212.106 143.135L218.46 108.611L215.851 108.131L209.497 142.656Z" fill="#EDCB00"/>
<path d="M211.128 142.953L212.938 143.286L219.292 108.761L217.482 108.429L211.128 142.953Z" fill="#BBA000"/>
<path d="M219.859 161.368H183.346C183.602 146.933 183.859 132.498 184.109 118.056C185.186 118.526 186.655 119.203 188.339 120.115C189.951 120.992 191.185 121.768 192.34 122.531C196.092 124.989 199.723 127.653 201.692 129.128C204.63 126.627 207.876 124.048 211.442 121.455C214.067 119.552 216.642 117.8 219.139 116.19C219.103 118.106 219.068 120.016 219.032 121.932C219.31 135.077 219.588 148.223 219.859 161.368Z" fill="#BF2500"/>
</g>
<defs>
<filter id="filter0_d" x="0.162109" y="0" width="299" height="214" filterUnits="userSpaceOnUse" color-interpolation-filters="sRGB">
<feFlood flood-opacity="0" result="BackgroundImageFix"/>
<feColorMatrix in="SourceAlpha" type="matrix" values="0 0 0 0 0 0 0 0 0 0 0 0 0 0 0 0 0 0 127 0"/>
<feOffset dy="4"/>
<feGaussianBlur stdDeviation="9.5"/>
<feColorMatrix type="matrix" values="0 0 0 0 0 0 0 0 0 0 0 0 0 0 0 0 0 0 0.17 0"/>
<feBlend mode="normal" in2="BackgroundImageFix" result="effect1_dropShadow"/>
<feBlend mode="normal" in="SourceGraphic" in2="effect1_dropShadow" result="shape"/>
</filter>
<clipPath id="clip0">
<rect x="19.0811" y="98" width="252" height="90" fill="white"/>
</clipPath>
</defs>
</svg>
