<svg width="426" height="380" viewBox="0 0 426 380" fill="none" xmlns="http://www.w3.org/2000/svg">
<path d="M334.047 51.937H85.5193V26.2212C85.5193 20.0216 90.5409 15 96.7405 15H322.826C329.026 15 334.047 20.0216 334.047 26.2212V51.937Z" fill="#EAEAEA"/>
<path d="M82.9109 62.3537L53.9465 142.018H362.982L334.055 62.3537H82.9109Z" fill="#EAEAEA"/>
<path d="M365.298 152.21V169.693C365.298 178.657 355.292 185.923 342.942 185.923C336.358 185.923 330.444 183.853 326.352 180.567C322.261 183.853 316.334 185.923 309.75 185.923C303.017 185.923 296.979 183.753 292.887 180.331C288.795 184.001 282.534 186.345 275.528 186.345C268.783 186.345 262.732 184.175 258.641 180.753C254.561 183.927 248.734 185.923 242.261 185.923C235.64 185.923 229.701 183.828 225.609 180.517C221.518 184.076 215.355 186.345 208.461 186.345C201.654 186.345 195.566 184.138 191.475 180.666C187.395 183.89 181.53 185.923 174.996 185.923C168.425 185.923 162.51 183.865 158.419 180.579C154.327 183.865 148.412 185.923 141.828 185.923C134.922 185.923 128.747 183.642 124.656 180.071C120.564 183.642 114.377 185.923 107.47 185.923C100.651 185.923 94.5382 183.704 90.4465 180.195C86.3548 183.691 80.2296 185.923 73.3977 185.923C61.0605 185.923 51.0544 178.657 51.0544 169.693V152.21H365.298Z" fill="#EAEAEA"/>
<path d="M174.957 196.371H75.1318V331.075H174.957V196.371Z" fill="#EAEAEA"/>
<path d="M342.734 196.371H185.785V266.215H342.734V196.371Z" fill="#EAEAEA"/>
<path d="M342.734 275.752H185.785V331.077H342.734V275.752Z" fill="#EAEAEA"/>
<path d="M168.846 331.077H57.1672C53.807 331.077 51.0544 328.324 51.0544 324.964C51.0544 321.604 53.807 318.851 57.1672 318.851H168.846C172.206 318.851 174.959 321.604 174.959 324.964C174.959 328.324 172.206 331.077 168.846 331.077Z" fill="#EAEAEA"/>
<path d="M359.182 331.077H247.503C244.143 331.077 241.39 328.324 241.39 324.964C241.39 321.604 244.143 318.851 247.503 318.851H359.182C362.542 318.851 365.295 321.604 365.295 324.964C365.295 328.324 362.542 331.077 359.182 331.077Z" fill="#EAEAEA"/>
<path d="M271.544 223.53H208.321C206.126 223.53 204.328 221.732 204.328 219.538C204.328 217.343 206.126 215.545 208.321 215.545H271.544C273.738 215.545 275.536 217.343 275.536 219.538C275.536 221.732 273.738 223.53 271.544 223.53Z" fill="#EAEAEA"/>
<path d="M289.178 245.974H225.954C223.76 245.974 221.962 244.176 221.962 241.981C221.962 239.786 223.76 237.988 225.954 237.988H289.178C291.372 237.988 293.17 239.786 293.17 241.981C293.17 244.176 291.372 245.974 289.178 245.974Z" fill="#EAEAEA"/>
<path d="M334.252 379.291C354.825 379.291 371.503 376.657 371.503 373.409C371.503 370.161 354.825 367.527 334.252 367.527C313.678 367.527 297 370.161 297 373.409C297 376.657 313.678 379.291 334.252 379.291Z" fill="#12B2EB"/>
<path d="M352.05 361.609C353.69 360.088 355.23 358.273 355.699 356.119C356.168 353.964 355.244 351.321 353.148 350.528C350.804 349.634 348.3 351.248 346.405 352.883C344.51 354.517 342.327 356.385 339.843 356.038C341.126 354.882 342.085 353.413 342.626 351.775C343.168 350.138 343.272 348.388 342.929 346.698C342.822 346.002 342.526 345.349 342.072 344.81C340.773 343.422 338.416 344.016 336.856 345.11C331.908 348.579 330.522 355.285 330.495 361.322C329.993 359.141 330.414 356.872 330.401 354.651C330.388 352.429 329.778 349.94 327.89 348.739C326.71 348.111 325.384 347.802 324.046 347.845C321.823 347.765 319.359 347.986 317.826 349.607C315.931 351.608 316.426 355.004 318.067 357.226C319.707 359.448 322.212 360.835 324.515 362.37C326.263 363.538 328.037 364.899 329.115 366.747C329.257 366.994 329.372 367.256 329.457 367.527H343.405C346.54 365.95 349.448 363.96 352.05 361.609Z" fill="#12B2EB"/>
<path d="M19.6848 291.685C28.3473 291.685 35.3697 290.807 35.3697 289.724C35.3697 288.641 28.3473 287.764 19.6848 287.764C11.0223 287.764 4 288.641 4 289.724C4 290.807 11.0223 291.685 19.6848 291.685Z" fill="#12B2EB" fill-opacity="0.3"/>
<path d="M29.5635 284.805C30.3837 284.044 31.1538 283.137 31.3882 282.059C31.6225 280.982 31.1605 279.661 30.1125 279.264C28.9407 278.817 27.6886 279.624 26.7411 280.441C25.7936 281.259 24.7021 282.193 23.46 282.019C24.1016 281.441 24.5813 280.706 24.8519 279.888C25.1225 279.069 25.1747 278.194 25.0034 277.349C24.9499 277.001 24.8016 276.675 24.5749 276.405C23.9253 275.711 22.7468 276.008 21.9667 276.555C19.4925 278.29 18.7995 281.642 18.7861 284.661C18.535 283.57 18.7459 282.436 18.7392 281.325C18.7325 280.214 18.4278 278.97 17.4837 278.37C16.8935 278.055 16.2308 277.901 15.5619 277.923C14.4503 277.883 13.2183 277.993 12.4516 278.803C11.5041 279.804 11.7518 281.502 12.5721 282.613C13.3924 283.724 14.6445 284.418 15.7963 285.185C16.6701 285.769 17.5573 286.449 18.0964 287.373C18.1673 287.497 18.2245 287.628 18.2671 287.764H25.2411C26.8087 286.975 28.2626 285.98 29.5635 284.805Z" fill="#12B2EB" fill-opacity="0.3"/>
<path d="M0.812027 88.0435C0.812027 88.0435 43.8695 86.0282 38.7967 109.434C38.7967 109.434 39.8195 113.572 34.9717 115.448C34.9717 115.448 34.8949 113.715 30.5534 114.306C29.0077 114.505 27.4375 114.563 25.8744 114.481C23.7657 114.373 21.7592 113.737 20.1572 112.668C20.1572 112.668 8.05306 108.788 3.34844 93.4428C3.34844 93.4428 -0.134018 90.0945 0.00405121 89.2336L7.27065 91.6417C7.27065 91.6417 4.78539 95.708 6.75928 99.088C6.75928 99.088 6.99451 91.7885 8.39056 91.9472C8.67181 91.9789 12.1645 93.3555 12.1645 93.3555C12.1645 93.3555 7.89451 100.437 11.1161 105.586C11.1161 105.586 9.89399 96.8585 13.4992 93.8673L18.6129 96.1841C18.6129 96.1841 13.6219 103.499 17.0072 109.47C17.0072 109.47 16.1378 100.314 19.6919 96.7474L24.3249 99.5522C24.3249 99.5522 19.6356 106.76 22.4942 111.711C22.4942 111.711 22.8675 101.056 25.3272 100.25C25.3272 100.25 29.3824 103.027 30.0011 104.162C30.0011 104.162 26.7897 109.399 28.7841 112.16C28.7841 112.16 30.0062 105.059 31.0085 105.019C31.0085 105.019 35.0484 109.724 35.4677 112.953C35.4677 112.953 35.2938 108.157 31.9853 104.575C31.9853 104.575 35.8921 105.094 38.1728 107.058C38.1728 107.058 37.5439 103.734 30.9881 103.44C30.9881 103.44 27.6488 99.8695 26.759 99.6553C26.759 99.6553 33.2739 99.2308 37.2268 100.592C37.2268 100.592 33.7495 97.4535 25.5624 98.8817L20.9856 95.9817C20.9856 95.9817 29.5664 95.0733 33.2074 96.0769C33.2074 96.0769 29.0193 93.3 19.7532 95.3232L14.7725 93.0143C14.7725 93.0143 22.0902 91.7924 26.4471 92.2209C26.4471 92.2209 21.8447 90.2968 13.31 92.3835L9.73035 91.1418C9.73035 91.1418 15.0895 90.3246 16.6594 90.1937C18.2293 90.0628 18.3112 89.7295 18.3112 89.7295C14.9159 89.2903 11.4301 89.5911 8.24224 90.5983C8.24224 90.5983 0.684185 88.4124 0.812027 88.0435Z" fill="#12B2EB"/>
<mask id="path-16-inside-1" fill="white">
<path d="M231.772 244.984C231.735 244.984 231.659 244.984 231.583 244.951C229.238 244.577 227.122 243.453 225.57 241.786C224.02 240.118 223.149 238.009 223.149 235.797V227.048C223.149 224.564 224.208 222.215 226.174 220.479C228.141 218.709 230.712 217.757 233.472 217.757C236.271 217.757 238.879 218.709 240.808 220.479C242.775 222.215 243.87 224.564 243.87 227.048V235.795C243.87 238.007 243.001 240.118 241.413 241.784C239.9 243.453 237.744 244.575 235.4 244.949C234.869 245.051 234.341 244.746 234.265 244.235C234.152 243.758 234.491 243.282 235.058 243.214C236.912 242.874 238.688 241.989 239.898 240.628C241.185 239.3 241.902 237.565 241.902 235.795V227.048C241.902 225.039 240.994 223.134 239.407 221.739C237.857 220.309 235.739 219.527 233.509 219.527C231.277 219.527 229.16 220.309 227.572 221.739C225.983 223.169 225.114 225.041 225.114 227.048V235.795C225.114 237.565 225.833 239.3 227.081 240.628C228.328 241.989 230.069 242.874 231.959 243.214C232.489 243.282 232.868 243.758 232.753 244.235C232.68 244.677 232.263 244.984 231.772 244.984Z"/>
</mask>
<path d="M231.772 244.984C231.735 244.984 231.659 244.984 231.583 244.951C229.238 244.577 227.122 243.453 225.57 241.786C224.02 240.118 223.149 238.009 223.149 235.797V227.048C223.149 224.564 224.208 222.215 226.174 220.479C228.141 218.709 230.712 217.757 233.472 217.757C236.271 217.757 238.879 218.709 240.808 220.479C242.775 222.215 243.87 224.564 243.87 227.048V235.795C243.87 238.007 243.001 240.118 241.413 241.784C239.9 243.453 237.744 244.575 235.4 244.949C234.869 245.051 234.341 244.746 234.265 244.235C234.152 243.758 234.491 243.282 235.058 243.214C236.912 242.874 238.688 241.989 239.898 240.628C241.185 239.3 241.902 237.565 241.902 235.795V227.048C241.902 225.039 240.994 223.134 239.407 221.739C237.857 220.309 235.739 219.527 233.509 219.527C231.277 219.527 229.16 220.309 227.572 221.739C225.983 223.169 225.114 225.041 225.114 227.048V235.795C225.114 237.565 225.833 239.3 227.081 240.628C228.328 241.989 230.069 242.874 231.959 243.214C232.489 243.282 232.868 243.758 232.753 244.235C232.68 244.677 232.263 244.984 231.772 244.984Z" fill="#E74B38"/>
<path d="M231.583 244.951L239.615 226.634L237.265 225.604L234.731 225.2L231.583 244.951ZM225.57 241.786L210.916 255.397L210.924 255.405L210.931 255.414L225.57 241.786ZM226.174 220.479L239.406 235.477L239.48 235.411L239.554 235.345L226.174 220.479ZM240.808 220.479L227.289 235.218L227.432 235.349L227.577 235.477L240.808 220.479ZM241.413 241.784L226.935 227.985L226.763 228.166L226.595 228.351L241.413 241.784ZM235.4 244.949L232.252 225.198L231.94 225.248L231.63 225.308L235.4 244.949ZM234.265 244.235L254.047 241.289L253.922 240.45L253.726 239.624L234.265 244.235ZM235.058 243.214L237.454 263.07L238.065 262.996L238.67 262.885L235.058 243.214ZM239.898 240.628L225.533 226.713L225.235 227.02L224.952 227.339L239.898 240.628ZM239.407 221.739L225.844 236.438L226.021 236.601L226.202 236.76L239.407 221.739ZM227.081 240.628L241.826 227.116L241.743 227.025L241.658 226.935L227.081 240.628ZM231.959 243.214L228.416 262.898L228.906 262.986L229.399 263.05L231.959 243.214ZM232.753 244.235L213.309 239.549L213.134 240.277L213.013 241.015L232.753 244.235ZM231.772 224.984C231.763 224.984 232.096 224.983 232.507 224.998C232.935 225.015 233.51 225.051 234.188 225.136C235.503 225.302 237.438 225.68 239.615 226.634L223.551 263.267C227.796 265.129 231.621 264.984 231.772 264.984V224.984ZM234.731 225.2C236.677 225.51 238.642 226.475 240.209 228.158L210.931 255.414C215.601 260.43 221.8 263.644 228.436 264.702L234.731 225.2ZM240.224 228.175C241.876 229.953 243.149 232.625 243.149 235.797H203.149C203.149 243.393 206.165 250.282 210.916 255.397L240.224 228.175ZM243.149 235.797V227.048H203.149V235.797H243.149ZM243.149 227.048C243.149 230.462 241.621 233.522 239.406 235.477L212.943 205.482C206.794 210.907 203.149 218.666 203.149 227.048H243.149ZM239.554 235.345C237.641 237.067 235.366 237.757 233.472 237.757V197.757C226.057 197.757 218.641 200.352 212.794 205.614L239.554 235.345ZM233.472 237.757C231.766 237.757 229.402 237.156 227.289 235.218L254.328 205.741C248.356 200.263 240.776 197.757 233.472 197.757V237.757ZM227.577 235.477C225.514 233.657 223.87 230.658 223.87 227.048H263.87C263.87 218.469 260.036 210.772 254.04 205.482L227.577 235.477ZM223.87 227.048V235.795H263.87V227.048H223.87ZM223.87 235.795C223.87 232.612 225.16 229.848 226.935 227.985L255.89 255.583C260.842 250.387 263.87 243.402 263.87 235.795H223.87ZM226.595 228.351C228.38 226.383 230.466 225.483 232.252 225.198L238.547 264.7C245.022 263.668 251.42 260.522 256.23 255.217L226.595 228.351ZM231.63 225.308C239.666 223.765 252.082 228.091 254.047 241.289L214.483 247.181C216.6 261.4 230.072 266.336 239.169 264.591L231.63 225.308ZM253.726 239.624C256.716 252.244 247.17 261.898 237.454 263.07L232.663 223.358C221.812 224.667 211.588 235.272 214.804 248.846L253.726 239.624ZM238.67 262.885C244.048 261.898 250.14 259.209 254.845 253.917L224.952 227.339C227.235 224.77 229.776 223.85 231.447 223.543L238.67 262.885ZM254.263 254.543C259.002 249.652 261.902 242.987 261.902 235.795H221.902C221.902 232.143 223.367 228.949 225.533 226.713L254.263 254.543ZM261.902 235.795V227.048H221.902V235.795H261.902ZM261.902 227.048C261.902 218.829 258.161 211.596 252.611 206.718L226.202 236.76C223.826 234.672 221.902 231.249 221.902 227.048H261.902ZM252.97 207.04C247.414 201.914 240.324 199.527 233.509 199.527V239.527C231.153 239.527 228.301 238.704 225.844 236.438L252.97 207.04ZM233.509 199.527C226.638 199.527 219.672 201.942 214.192 206.874L240.952 236.605C238.649 238.677 235.916 239.527 233.509 239.527V199.527ZM214.192 206.874C208.719 211.8 205.114 218.943 205.114 227.048H245.114C245.114 231.139 243.248 234.538 240.952 236.605L214.192 206.874ZM205.114 227.048V235.795H245.114V227.048H205.114ZM205.114 235.795C205.114 242.967 207.994 249.52 212.503 254.321L241.658 226.935C243.673 229.08 245.114 232.163 245.114 235.795H205.114ZM212.335 254.14C216.922 259.146 222.808 261.888 228.416 262.898L235.503 223.53C237.329 223.859 239.734 224.833 241.826 227.116L212.335 254.14ZM229.399 263.05C220.615 261.916 210.08 252.949 213.309 239.549L252.196 248.921C255.655 234.566 244.364 224.649 234.519 223.378L229.399 263.05ZM213.013 241.015C214.832 229.867 224.536 224.984 231.772 224.984V264.984C239.99 264.984 250.529 259.487 252.492 247.455L213.013 241.015Z" fill="#E74B38" mask="url(#path-16-inside-1)"/>
<mask id="path-18-inside-2" fill="white">
<path d="M246.633 245.051C246.102 245.051 245.65 244.642 245.65 244.167V220.172C245.65 218.88 246.822 217.823 248.26 217.823H258.357C260.436 217.823 262.44 218.573 263.916 219.899C265.391 221.227 266.184 222.995 266.184 224.867C266.184 226.772 265.391 228.542 263.916 229.87C262.44 231.199 260.436 231.946 258.357 231.946H250.114C249.584 231.946 249.131 231.537 249.131 231.062C249.131 230.551 249.585 230.142 250.114 230.142H258.357C261.608 230.142 264.218 227.793 264.218 224.867C264.218 221.974 261.608 219.592 258.357 219.592H248.26C247.919 219.592 247.617 219.864 247.617 220.171V244.165C247.617 244.644 247.2 245.051 246.633 245.051Z"/>
</mask>
<path d="M246.633 245.051C246.102 245.051 245.65 244.642 245.65 244.167V220.172C245.65 218.88 246.822 217.823 248.26 217.823H258.357C260.436 217.823 262.44 218.573 263.916 219.899C265.391 221.227 266.184 222.995 266.184 224.867C266.184 226.772 265.391 228.542 263.916 229.87C262.44 231.199 260.436 231.946 258.357 231.946H250.114C249.584 231.946 249.131 231.537 249.131 231.062C249.131 230.551 249.585 230.142 250.114 230.142H258.357C261.608 230.142 264.218 227.793 264.218 224.867C264.218 221.974 261.608 219.592 258.357 219.592H248.26C247.919 219.592 247.617 219.864 247.617 220.171V244.165C247.617 244.644 247.2 245.051 246.633 245.051Z" fill="#E74B38"/>
<path d="M263.916 219.899L277.295 205.033L277.286 205.025L263.916 219.899ZM246.633 225.051C255.142 225.051 265.65 231.692 265.65 244.167H225.65C225.65 257.592 237.063 265.051 246.633 265.051V225.051ZM265.65 244.167V220.172H225.65V244.167H265.65ZM265.65 220.172C265.65 231.845 255.845 237.823 248.26 237.823V197.823C237.799 197.823 225.65 205.914 225.65 220.172H265.65ZM248.26 237.823H258.357V197.823H248.26V237.823ZM258.357 237.823C255.75 237.823 252.923 236.91 250.546 234.773L277.286 205.025C271.957 200.235 265.123 197.823 258.357 197.823V237.823ZM250.536 234.764C247.965 232.45 246.184 228.886 246.184 224.867H286.184C286.184 217.104 282.817 210.004 277.295 205.033L250.536 234.764ZM246.184 224.867C246.184 220.94 247.919 217.36 250.536 215.005L277.295 244.736C282.863 239.725 286.184 232.604 286.184 224.867H246.184ZM250.536 215.005C252.926 212.854 255.761 211.946 258.357 211.946V251.946C265.112 251.946 271.954 249.543 277.295 244.736L250.536 215.005ZM258.357 211.946H250.114V251.946H258.357V211.946ZM250.114 211.946C258.623 211.946 269.131 218.587 269.131 231.062H229.131C229.131 244.487 240.544 251.946 250.114 251.946V211.946ZM269.131 231.062C269.131 243.047 259.124 250.142 250.114 250.142V210.142C240.047 210.142 229.131 218.056 229.131 231.062H269.131ZM250.114 250.142H258.357V210.142H250.114V250.142ZM258.357 250.142C270.621 250.142 284.218 240.768 284.218 224.867H244.218C244.218 214.819 252.595 210.142 258.357 210.142V250.142ZM284.218 224.867C284.218 209.077 270.706 199.592 258.357 199.592V239.592C252.509 239.592 244.218 234.871 244.218 224.867H284.218ZM258.357 199.592H248.26V239.592H258.357V199.592ZM248.26 199.592C238.906 199.592 227.617 206.889 227.617 220.171H267.617C267.617 226.714 264.457 231.692 261.19 234.632C257.884 237.607 253.355 239.592 248.26 239.592V199.592ZM227.617 220.171V244.165H267.617V220.171H227.617ZM227.617 244.165C227.617 232.112 237.702 225.051 246.633 225.051V265.051C256.698 265.051 267.617 257.176 267.617 244.165H227.617Z" fill="#E74B38" mask="url(#path-18-inside-2)"/>
<mask id="path-20-inside-3" fill="white">
<path d="M267.96 228.409V220.206C267.96 218.878 269.131 217.823 270.57 217.823H285.808C286.338 217.823 286.791 218.232 286.791 218.708C286.791 219.218 286.336 219.627 285.808 219.627H270.57C270.229 219.627 269.927 219.865 269.927 220.206V228.407C269.927 228.918 269.511 229.327 268.944 229.327C268.375 229.328 267.96 228.92 267.96 228.409ZM269.927 232.493V242.67C269.927 243.011 270.229 243.249 270.57 243.249H285.808C286.338 243.249 286.791 243.658 286.791 244.133C286.791 244.644 286.336 245.053 285.808 245.053H270.57C269.133 245.053 267.96 243.998 267.96 242.67V232.493C267.96 231.2 269.131 230.111 270.57 230.111H285.808C286.338 230.111 286.791 230.52 286.791 231.03C286.791 231.541 286.336 231.949 285.808 231.949H270.57C270.229 231.948 269.927 232.186 269.927 232.493Z"/>
</mask>
<path d="M267.96 228.409V220.206C267.96 218.878 269.131 217.823 270.57 217.823H285.808C286.338 217.823 286.791 218.232 286.791 218.708C286.791 219.218 286.336 219.627 285.808 219.627H270.57C270.229 219.627 269.927 219.865 269.927 220.206V228.407C269.927 228.918 269.511 229.327 268.944 229.327C268.375 229.328 267.96 228.92 267.96 228.409ZM269.927 232.493V242.67C269.927 243.011 270.229 243.249 270.57 243.249H285.808C286.338 243.249 286.791 243.658 286.791 244.133C286.791 244.644 286.336 245.053 285.808 245.053H270.57C269.133 245.053 267.96 243.998 267.96 242.67V232.493C267.96 231.2 269.131 230.111 270.57 230.111H285.808C286.338 230.111 286.791 230.52 286.791 231.03C286.791 231.541 286.336 231.949 285.808 231.949H270.57C270.229 231.948 269.927 232.186 269.927 232.493Z" fill="#E74B38"/>
<path d="M268.944 229.327V209.327H268.913L268.883 209.327L268.944 229.327ZM270.57 231.949L270.467 251.949L270.518 251.949H270.57V231.949ZM287.96 228.409V220.206H247.96V228.409H287.96ZM287.96 220.206C287.96 231.679 278.336 237.823 270.57 237.823V197.823C259.927 197.823 247.96 206.077 247.96 220.206H287.96ZM270.57 237.823H285.808V197.823H270.57V237.823ZM285.808 237.823C277.299 237.823 266.791 231.183 266.791 218.708H306.791C306.791 205.282 295.378 197.823 285.808 197.823V237.823ZM266.791 218.708C266.791 206.723 276.798 199.627 285.808 199.627V239.627C295.874 239.627 306.791 231.714 306.791 218.708H266.791ZM285.808 199.627H270.57V239.627H285.808V199.627ZM270.57 199.627C262.009 199.627 249.927 206.192 249.927 220.206H289.927C289.927 233.539 278.449 239.627 270.57 239.627V199.627ZM249.927 220.206V228.407H289.927V220.206H249.927ZM249.927 228.407C249.927 216.923 259.439 209.327 268.944 209.327V249.327C279.584 249.327 289.927 240.913 289.927 228.407H249.927ZM268.883 209.327C278.415 209.297 287.96 216.906 287.96 228.409H247.96C247.96 240.933 258.335 249.359 269.006 249.327L268.883 209.327ZM249.927 232.493V242.67H289.927V232.493H249.927ZM249.927 242.67C249.927 256.685 262.009 263.249 270.57 263.249V223.249C278.449 223.249 289.927 229.337 289.927 242.67H249.927ZM270.57 263.249H285.808V223.249H270.57V263.249ZM285.808 263.249C277.299 263.249 266.791 256.608 266.791 244.133H306.791C306.791 230.707 295.378 223.249 285.808 223.249V263.249ZM266.791 244.133C266.791 232.148 276.798 225.053 285.808 225.053V265.053C295.874 265.053 306.791 257.139 306.791 244.133H266.791ZM285.808 225.053H270.57V265.053H285.808V225.053ZM270.57 225.053C278.328 225.053 287.96 231.188 287.96 242.67H247.96C247.96 256.808 259.939 265.053 270.57 265.053V225.053ZM287.96 242.67V232.493H247.96V242.67H287.96ZM287.96 232.493C287.96 243.819 278.535 250.111 270.57 250.111V210.111C259.728 210.111 247.96 218.581 247.96 232.493H287.96ZM270.57 250.111H285.808V210.111H270.57V250.111ZM285.808 250.111C276.774 250.111 266.791 242.99 266.791 231.03H306.791C306.791 218.049 295.903 210.111 285.808 210.111V250.111ZM266.791 231.03C266.791 219.045 276.798 211.949 285.808 211.949V251.949C295.874 251.949 306.791 244.036 306.791 231.03H266.791ZM285.808 211.949H270.57V251.949H285.808V211.949ZM270.673 211.95C262.855 211.909 249.927 217.805 249.927 232.493H289.927C289.927 239.287 286.525 244.489 282.873 247.513C279.292 250.477 274.876 251.972 270.467 251.949L270.673 211.95Z" fill="#E74B38" mask="url(#path-20-inside-3)"/>
<mask id="path-22-inside-4" fill="white">
<path d="M289.55 244.916C289.02 244.916 288.568 244.507 288.568 244.032V220.479C288.568 219.458 289.324 218.574 290.422 218.336C291.556 218.097 292.654 218.574 293.182 219.494L306.34 242.875C306.492 243.114 306.718 243.114 306.871 243.079C306.984 243.046 307.212 242.942 307.212 242.67V218.573C307.212 218.095 307.666 217.688 308.194 217.688C308.761 217.688 309.176 218.097 309.176 218.573V242.668C309.176 243.723 308.457 244.574 307.323 244.812C306.188 245.051 305.091 244.609 304.563 243.654L291.404 220.309C291.252 220.037 291.026 220.071 290.913 220.106C290.761 220.106 290.572 220.208 290.572 220.479V244.032C290.572 244.507 290.118 244.916 289.55 244.916Z"/>
</mask>
<path d="M289.55 244.916C289.02 244.916 288.568 244.507 288.568 244.032V220.479C288.568 219.458 289.324 218.574 290.422 218.336C291.556 218.097 292.654 218.574 293.182 219.494L306.34 242.875C306.492 243.114 306.718 243.114 306.871 243.079C306.984 243.046 307.212 242.942 307.212 242.67V218.573C307.212 218.095 307.666 217.688 308.194 217.688C308.761 217.688 309.176 218.097 309.176 218.573V242.668C309.176 243.723 308.457 244.574 307.323 244.812C306.188 245.051 305.091 244.609 304.563 243.654L291.404 220.309C291.252 220.037 291.026 220.071 290.913 220.106C290.761 220.106 290.572 220.208 290.572 220.479V244.032C290.572 244.507 290.118 244.916 289.55 244.916Z" fill="#E74B38"/>
<path d="M290.422 218.336L286.305 198.764L286.239 198.778L286.173 198.792L290.422 218.336ZM293.182 219.494L310.611 209.685L310.567 209.607L310.523 209.529L293.182 219.494ZM306.34 242.875L288.911 252.684L289.179 253.161L289.474 253.623L306.34 242.875ZM306.871 243.079L311.368 262.567L311.952 262.432L312.527 262.262L306.871 243.079ZM304.563 243.654L322.061 233.969L322.024 233.901L321.986 233.834L304.563 243.654ZM291.404 220.309L273.947 230.069L273.964 230.1L273.981 230.13L291.404 220.309ZM290.913 220.106V240.106H293.945L296.841 239.207L290.913 220.106ZM289.55 224.916C298.06 224.916 308.568 231.557 308.568 244.032H268.568C268.568 257.457 279.981 264.916 289.55 264.916V224.916ZM308.568 244.032V220.479H268.568V244.032H308.568ZM308.568 220.479C308.568 229.974 301.639 236.364 294.671 237.879L286.173 198.792C277.009 200.785 268.568 208.943 268.568 220.479H308.568ZM294.538 237.907C287.85 239.314 279.954 236.616 275.841 229.458L310.523 209.529C305.353 200.533 295.262 196.88 286.305 198.764L294.538 237.907ZM275.752 229.302L288.911 252.684L323.77 233.067L310.611 209.685L275.752 229.302ZM289.474 253.623C292.231 257.951 296.487 261.068 301.408 262.393C305.754 263.562 309.404 263.02 311.368 262.567L302.373 223.591C304.185 223.173 307.646 222.648 311.802 223.767C316.535 225.04 320.601 228.039 323.207 232.128L289.474 253.623ZM312.527 262.262C314.116 261.794 317.331 260.649 320.463 257.829C324.154 254.507 327.212 249.229 327.212 242.67H287.212C287.212 236.384 290.155 231.293 293.704 228.099C296.694 225.407 299.738 224.331 301.214 223.895L312.527 262.262ZM327.212 242.67V218.573H287.212V242.67H327.212ZM327.212 218.573C327.212 231.094 316.652 237.688 308.194 237.688V197.688C298.68 197.688 287.212 205.097 287.212 218.573H327.212ZM308.194 237.688C299.209 237.688 289.176 230.579 289.176 218.573H329.176C329.176 205.615 318.314 197.688 308.194 197.688V237.688ZM289.176 218.573V242.668H329.176V218.573H289.176ZM289.176 242.668C289.176 238.493 290.659 234.326 293.505 231.013C296.312 227.746 299.883 225.939 303.206 225.24L311.439 264.384C320.872 262.4 329.176 254.128 329.176 242.668H289.176ZM303.206 225.24C309.476 223.922 317.776 226.226 322.061 233.969L287.064 253.339C292.406 262.991 302.9 266.18 311.439 264.384L303.206 225.24ZM321.986 233.834L308.827 210.489L273.981 230.13L287.14 253.475L321.986 233.834ZM308.861 210.549C306.271 205.917 301.722 202.047 295.761 200.633C290.705 199.433 286.632 200.493 284.985 201.005L296.841 239.207C295.307 239.683 291.404 240.709 286.527 239.552C280.745 238.181 276.385 234.43 273.947 230.069L308.861 210.549ZM290.913 200.106C286.692 200.106 281.613 201.463 277.333 205.301C272.577 209.566 270.572 215.309 270.572 220.479H310.572C310.572 225.378 308.662 230.934 304.038 235.081C299.891 238.8 294.982 240.106 290.913 240.106V200.106ZM270.572 220.479V244.032H310.572V220.479H270.572ZM270.572 244.032C270.572 231.062 281.635 224.916 289.55 224.916V264.916C298.6 264.916 310.572 257.952 310.572 244.032H270.572Z" fill="#E74B38" mask="url(#path-22-inside-4)"/>
<path d="M218.43 229.358C218.358 229.358 218.282 229.348 218.21 229.327C216.844 228.923 212.304 227.298 211.222 223.283C210.326 219.948 212.372 216.975 213.246 215.706C218.74 207.723 230.445 206.715 236.733 206.175C239.111 205.97 245.502 205.657 253.511 207.159C258.473 208.091 263.342 209.588 267.985 211.609C268.381 211.781 268.56 212.241 268.389 212.634C268.217 213.03 267.757 213.209 267.363 213.038C262.828 211.063 258.07 209.602 253.222 208.691C245.402 207.224 239.179 207.528 236.865 207.727C230.833 208.245 219.606 209.212 214.53 216.589C213.715 217.774 212.02 220.24 212.729 222.879C213.622 226.195 217.818 227.586 218.651 227.832C219.064 227.953 219.3 228.387 219.179 228.801C219.077 229.14 218.768 229.358 218.43 229.358Z" fill="#12B2EB"/>
<path d="M290.519 255.157C286.348 255.157 282.882 254.888 281.341 254.769C272.164 254.058 263.186 251.695 254.657 247.748C254.267 247.567 254.096 247.103 254.277 246.713C254.458 246.323 254.92 246.152 255.312 246.333C263.672 250.202 272.47 252.518 281.46 253.216C300.481 254.689 312.465 251.816 315.203 245.125C316.529 241.885 315.663 237.476 312.702 232.371C312.486 231.999 312.613 231.522 312.985 231.305C313.357 231.089 313.835 231.216 314.051 231.588C317.265 237.127 318.162 242.012 316.647 245.713C314.646 250.606 308.722 253.637 299.045 254.72C296.129 255.048 293.18 255.157 290.519 255.157Z" fill="#12B2EB"/>
<path d="M425.068 0.0522891C425.068 0.0522891 375.655 -2.37061 381.477 25.7694C381.477 25.7694 380.303 30.744 385.866 33C385.866 33 385.954 30.9157 390.937 31.6264C392.711 31.8654 394.513 31.9358 396.307 31.8362C398.726 31.707 401.029 30.942 402.868 29.6566C402.868 29.6566 416.758 24.992 422.157 6.54358C422.157 6.54358 426.154 2.51812 425.995 1.48314L417.656 4.37823C417.656 4.37823 420.508 9.26697 418.243 13.3306C418.243 13.3306 417.973 4.5547 416.371 4.74548C416.048 4.78364 412.04 6.43866 412.04 6.43866C412.04 6.43866 416.94 14.9522 413.243 21.143C413.243 21.143 414.646 10.6501 410.508 7.05392L404.64 9.83931C404.64 9.83931 410.368 18.6343 406.483 25.8124C406.483 25.8124 407.48 14.8044 403.402 10.5166L398.085 13.8886C398.085 13.8886 403.466 22.5548 400.186 28.5071C400.186 28.5071 399.757 15.6963 396.934 14.728C396.934 14.728 392.281 18.0667 391.571 19.4308C391.571 19.4308 395.256 25.7265 392.967 29.0461C392.967 29.0461 391.565 20.5087 390.415 20.461C390.415 20.461 385.778 26.1176 385.297 30C385.297 30 385.497 24.2337 389.294 19.9268C389.294 19.9268 384.81 20.5516 382.193 22.9125C382.193 22.9125 382.915 18.9157 390.438 18.5627C390.438 18.5627 394.27 14.2702 395.291 14.0126C395.291 14.0126 387.815 13.5023 383.278 15.1382C383.278 15.1382 387.269 11.3655 396.665 13.0826L401.917 9.59606C401.917 9.59606 392.069 8.50384 387.891 9.71053C387.891 9.71053 392.697 6.37188 403.331 8.80433L409.047 6.02848C409.047 6.02848 400.649 4.55947 395.649 5.07458C395.649 5.07458 400.931 2.76137 410.725 5.27012L414.833 3.77728C414.833 3.77728 408.683 2.79476 406.882 2.63736C405.08 2.47997 404.986 2.07933 404.986 2.07933C408.883 1.55127 412.883 1.91288 416.541 3.12385C416.541 3.12385 425.215 0.495853 425.068 0.0522891Z" fill="#12B2EB"/>
</svg>
