<svg width="95" height="25" viewBox="0 0 95 25" fill="none" xmlns="http://www.w3.org/2000/svg">
<path d="M65.568 7.778C65.64 7.586 65.748 7.442 65.892 7.346C66.036 7.25 66.198 7.202 66.378 7.202C66.606 7.202 66.804 7.28 66.972 7.436C67.152 7.58 67.242 7.772 67.242 8.012C67.242 8.144 67.218 8.264 67.17 8.372L63.192 19.496C63.108 19.7 62.976 19.856 62.796 19.964C62.616 20.072 62.418 20.126 62.202 20.126C61.998 20.126 61.806 20.072 61.626 19.964C61.446 19.856 61.32 19.7 61.248 19.496L57.972 10.208L54.624 19.496C54.552 19.7 54.426 19.856 54.246 19.964C54.066 20.072 53.874 20.126 53.67 20.126C53.454 20.126 53.256 20.072 53.076 19.964C52.908 19.856 52.782 19.7 52.698 19.496L48.72 8.372C48.672 8.264 48.648 8.144 48.648 8.012C48.648 7.772 48.738 7.58 48.918 7.436C49.098 7.28 49.314 7.202 49.566 7.202C49.746 7.202 49.908 7.25 50.052 7.346C50.208 7.442 50.322 7.586 50.394 7.778L53.724 17.354L57.108 7.868C57.18 7.664 57.294 7.508 57.45 7.4C57.618 7.292 57.798 7.238 57.99 7.238C58.182 7.238 58.356 7.298 58.512 7.418C58.668 7.526 58.788 7.682 58.872 7.886L62.184 17.444L65.568 7.778ZM79.3927 18.92C79.4527 19.064 79.4827 19.184 79.4827 19.28C79.4827 19.508 79.3867 19.7 79.1947 19.856C79.0147 20.012 78.8107 20.09 78.5827 20.09C78.4267 20.09 78.2767 20.048 78.1327 19.964C78.0007 19.868 77.8987 19.736 77.8267 19.568L76.6387 16.868H70.0507L68.8627 19.568C68.7907 19.736 68.6827 19.868 68.5387 19.964C68.3947 20.048 68.2447 20.09 68.0887 20.09C67.8487 20.09 67.6327 20.012 67.4407 19.856C67.2607 19.7 67.1707 19.508 67.1707 19.28C67.1707 19.184 67.2007 19.064 67.2607 18.92L72.3367 7.814C72.4207 7.622 72.5527 7.472 72.7327 7.364C72.9247 7.256 73.1227 7.202 73.3267 7.202C73.5307 7.202 73.7227 7.256 73.9027 7.364C74.0947 7.472 74.2327 7.622 74.3167 7.814L79.3927 18.92ZM75.9907 15.392L73.3447 9.434L70.7167 15.392H75.9907ZM87.912 7.544C88.08 7.328 88.29 7.22 88.542 7.22C88.758 7.22 88.95 7.31 89.118 7.49C89.298 7.658 89.388 7.856 89.388 8.084C89.388 8.3 89.316 8.486 89.172 8.642L84.924 13.934V19.154C84.924 19.454 84.834 19.688 84.654 19.856C84.486 20.012 84.264 20.09 83.988 20.09C83.712 20.09 83.49 20.012 83.322 19.856C83.154 19.688 83.07 19.454 83.07 19.154V13.934L78.822 8.642C78.678 8.486 78.606 8.294 78.606 8.066C78.606 7.838 78.69 7.64 78.858 7.472C79.026 7.304 79.224 7.22 79.452 7.22C79.692 7.22 79.902 7.328 80.082 7.544L84.006 12.476L87.912 7.544Z" fill="#12B2EB"/>
<path fill-rule="evenodd" clip-rule="evenodd" d="M3.04332 0.437469C3.12532 0.231819 3.18456 0.0832247 3.21456 0L13.7535 3.23433C13.6503 3.5205 13.5152 3.86918 13.3604 4.26838C12.6249 6.16523 11.4473 9.20269 11.1619 12.0935C11.011 13.6227 11.2074 14.3881 11.3203 14.657C11.3524 14.6656 11.393 14.6752 11.443 14.685C11.496 14.6954 11.5593 14.7059 11.6337 14.7154C11.7921 14.528 12.0014 14.247 12.2604 13.8395C12.4683 13.5123 12.6704 13.1659 12.8961 12.7718C12.9261 12.7195 12.9576 12.6644 12.9902 12.6072C13.1779 12.2786 13.406 11.8794 13.6231 11.5275C13.8543 11.1529 14.2637 10.5112 14.8232 9.9181C15.1802 9.53972 16.7802 7.86222 19.5259 7.86222C22.1447 7.86222 23.7383 9.40933 24.0857 9.74654L24.0912 9.75188C24.6625 10.3064 25.1014 10.913 25.368 11.2966C25.6488 11.7005 25.9341 12.1474 26.1703 12.5175L26.201 12.5657C26.4638 12.9773 26.6988 13.3445 26.9423 13.7014C27.2335 14.1281 27.4739 14.4442 27.6668 14.6721C27.6778 14.6696 27.688 14.6671 27.6977 14.6647C27.8074 14.3834 27.9874 13.6179 27.8327 12.1126C27.5611 9.47024 26.6951 7.10978 25.9817 5.16556C25.6795 4.34177 25.4047 3.5927 25.2141 2.92858L35.9508 0.305749C35.9498 0.302289 35.9501 0.303272 35.9522 0.309647C35.9594 0.331513 35.9873 0.416814 36.0542 0.603806C36.1165 0.77801 36.1895 0.976735 36.2796 1.22227C36.3043 1.28953 36.3303 1.3603 36.3577 1.43504C36.6037 2.10583 36.9231 2.98458 37.249 3.97836C37.8886 5.92832 38.6192 8.51279 38.8897 11.145C39.1452 13.6302 39.0901 17.0091 37.2411 19.935C35.0816 23.352 31.2645 25 26.7602 25C23.8633 25 21.7337 23.6497 20.4503 22.5431C20.1752 22.3058 19.9145 22.059 19.6684 21.8082C19.3968 22.0825 19.1053 22.3524 18.7929 22.6113C17.303 23.8462 15.1212 25 12.2916 25C7.78828 25 3.97604 23.3554 1.80249 19.9594C-0.0659915 17.0402 -0.145627 13.6629 0.101026 11.1641C0.540101 6.71591 2.4294 1.97729 3.04332 0.437469ZM28.0858 15.0981C28.0858 15.0981 28.0819 15.0955 28.0739 15.0893C28.0818 15.0948 28.0858 15.0981 28.0858 15.0981Z" fill="#12B2EB"/>
</svg>
